<svg id="bg-header" class="header-bg" width="1920" height="460" viewBox="0 0 1920 460" fill="none" xmlns="http://www.w3.org/2000/svg">
    <path d="M549.999 125C544.485 125 540 129.485 540 134.999C540 140.513 544.485 144.998 549.999 144.998C555.513 144.998 560 140.513 560 134.999C560 129.485 555.513 125 549.999 125ZM549.999 138.665C547.979 138.665 546.333 137.02 546.333 134.999C546.333 132.98 547.979 131.335 549.999 131.335C552.021 131.335 553.665 132.98 553.665 134.999C553.665 137.02 552.021 138.665 549.999 138.665Z" fill="#CDE7F5"></path>
    <path d="M535.703 272.125C533.593 273.658 531.893 275.686 530.753 278.031C529.065 280.844 528.109 282.25 526.618 282.25C525.128 282.25 524.172 280.9 522.484 278.031C520.797 275.162 518.378 271 513.484 271C508.59 271 506.228 275.05 504.484 278.031C502.74 281.012 501.84 282.25 500.378 282.25C498.915 282.25 497.931 280.9 496.243 278.031C494.556 275.162 492.137 271 487.243 271C482.35 271 479.987 275.05 478.243 278.031C476.5 281.012 475.628 282.25 474.109 282.25C472.59 282.25 471.662 280.9 470.003 278.031C468.862 275.686 467.162 273.658 465.053 272.125C464.632 271.918 464.166 271.82 463.698 271.84C463.23 271.859 462.774 271.995 462.371 272.235C461.969 272.475 461.633 272.812 461.394 273.216C461.155 273.619 461.02 274.075 461.003 274.544C460.982 275.014 461.079 275.481 461.285 275.904C461.492 276.326 461.801 276.69 462.184 276.962C463.44 278.025 464.448 279.35 465.137 280.844C466.853 283.825 469.215 287.875 474.109 287.875C479.003 287.875 481.393 283.825 483.109 280.844C484.825 277.863 485.725 276.625 487.243 276.625C488.762 276.625 489.69 277.975 491.35 280.844C493.009 283.712 495.456 287.875 500.378 287.875C505.3 287.875 507.634 283.825 509.378 280.844C511.122 277.863 511.993 276.625 513.512 276.625C515.031 276.625 515.959 277.975 517.647 280.844C519.334 283.712 521.753 287.875 526.647 287.875C531.54 287.875 533.903 283.825 535.647 280.844C536.294 279.363 537.254 278.039 538.459 276.962C538.863 276.703 539.194 276.345 539.421 275.922C539.647 275.498 539.762 275.024 539.753 274.544C539.735 274.075 539.601 273.619 539.362 273.216C539.123 272.812 538.787 272.475 538.384 272.235C537.982 271.995 537.526 271.859 537.058 271.84C536.589 271.82 536.124 271.918 535.703 272.125Z" fill="#CDE7F5"></path>
    <path d="M535.703 300.25C533.593 301.783 531.893 303.811 530.753 306.156C529.065 308.969 528.109 310.375 526.618 310.375C525.128 310.375 524.172 309.025 522.484 306.156C520.797 303.287 518.378 299.125 513.484 299.125C508.59 299.125 506.228 303.175 504.484 306.156C502.74 309.137 501.84 310.375 500.378 310.375C498.915 310.375 497.931 309.025 496.243 306.156C494.556 303.287 492.137 299.125 487.243 299.125C482.35 299.125 479.987 303.175 478.243 306.156C476.5 309.137 475.628 310.375 474.109 310.375C472.59 310.375 471.662 309.025 470.003 306.156C468.862 303.811 467.162 301.783 465.053 300.25C464.632 300.043 464.166 299.945 463.698 299.965C463.23 299.984 462.774 300.12 462.371 300.36C461.969 300.6 461.633 300.937 461.394 301.341C461.155 301.744 461.02 302.2 461.003 302.669C460.982 303.139 461.079 303.606 461.285 304.029C461.492 304.451 461.801 304.815 462.184 305.088C463.44 306.15 464.448 307.475 465.137 308.969C466.853 311.95 469.215 316 474.109 316C479.003 316 481.393 311.95 483.109 308.969C484.825 305.988 485.725 304.75 487.243 304.75C488.762 304.75 489.69 306.1 491.35 308.969C493.009 311.837 495.456 316 500.378 316C505.3 316 507.634 311.95 509.378 308.969C511.122 305.988 511.993 304.75 513.512 304.75C515.031 304.75 515.959 306.1 517.647 308.969C519.334 311.837 521.753 316 526.647 316C531.54 316 533.903 311.95 535.647 308.969C536.294 307.488 537.254 306.164 538.459 305.088C538.842 304.815 539.151 304.451 539.358 304.029C539.564 303.606 539.661 303.139 539.64 302.669C539.615 302.215 539.48 301.775 539.248 301.385C539.015 300.995 538.691 300.667 538.304 300.429C537.917 300.192 537.479 300.051 537.026 300.02C536.573 299.989 536.119 300.068 535.703 300.25Z" fill="#CDE7F5"></path>
    <g clip-path="url(#clip0_108_1158)" fill="#CDE7F5">
        <path d="M217.642 270.309L161.897 301.745C168.06 302.766 178.294 304.15 181.326 302.461L228.176 276.008C228.176 276.008 222.828 271.839 217.642 270.309ZM185.664 294.374C185.352 294.544 184.996 294.617 184.642 294.585C184.288 294.553 183.951 294.417 183.675 294.194C183.398 293.971 183.193 293.671 183.087 293.331C182.98 292.992 182.977 292.629 183.077 292.288C183.176 291.947 183.375 291.643 183.647 291.414C183.919 291.185 184.253 291.043 184.607 291.004C184.96 290.964 185.317 291.031 185.633 291.195C185.948 291.358 186.208 291.611 186.38 291.923C186.496 292.13 186.57 292.359 186.597 292.595C186.623 292.831 186.603 293.07 186.536 293.299C186.47 293.527 186.358 293.739 186.208 293.924C186.059 294.109 185.874 294.262 185.664 294.374ZM196.441 288.282C196.131 288.449 195.777 288.52 195.426 288.487C195.075 288.453 194.742 288.317 194.468 288.095C194.194 287.873 193.992 287.575 193.887 287.238C193.782 286.901 193.778 286.541 193.877 286.203C193.976 285.864 194.173 285.562 194.443 285.335C194.712 285.108 195.043 284.966 195.394 284.926C195.744 284.886 196.099 284.951 196.412 285.112C196.726 285.273 196.985 285.523 197.158 285.831C197.272 286.038 197.345 286.267 197.371 286.503C197.397 286.739 197.376 286.978 197.31 287.205C197.243 287.433 197.132 287.646 196.983 287.83C196.834 288.015 196.65 288.169 196.441 288.282ZM212.874 279.012C212.563 279.178 212.21 279.25 211.859 279.216C211.508 279.183 211.174 279.047 210.9 278.825C210.626 278.602 210.424 278.304 210.319 277.968C210.214 277.631 210.211 277.271 210.31 276.932C210.408 276.594 210.605 276.292 210.875 276.065C211.145 275.838 211.476 275.695 211.826 275.656C212.176 275.616 212.531 275.681 212.845 275.842C213.158 276.002 213.418 276.253 213.59 276.56C213.706 276.768 213.78 276.996 213.806 277.233C213.833 277.469 213.813 277.708 213.746 277.936C213.679 278.164 213.568 278.377 213.418 278.562C213.268 278.746 213.083 278.899 212.874 279.012Z" fill="#CDE7F5"></path>
        <path d="M211.172 270.443C208.976 271.71 206.452 273.097 203.781 274.612L211.039 268.897L165.87 222.344L198.696 277.501L195.864 279.096L161.198 220.059C161.198 220.059 142.129 256.59 156.047 297.515L188.087 283.483L157.234 300.899C157.234 300.899 158.267 301.119 159.973 301.41L215.848 269.878C214.271 269.52 212.618 269.72 211.172 270.443ZM161.309 223.621L184.934 263.948C184.934 263.948 184.864 263.956 184.835 263.96L153.592 279.116C150.178 253.137 157.843 230.487 161.309 223.621ZM154.065 282.333C154.302 282.345 154.539 282.296 154.753 282.191L186.265 266.932C186.371 266.878 186.472 266.812 186.564 266.736L188.532 270.087C188.421 270.109 188.314 270.146 188.213 270.195L154.816 286.372C154.494 285.021 154.334 283.67 154.065 282.333ZM157.175 295.307C156.562 293.365 156.039 291.504 155.562 289.607C155.676 289.582 155.787 289.542 155.89 289.488L189.639 273.138C189.821 273.054 189.985 272.935 190.121 272.789L193.682 278.862L157.175 295.307ZM174.575 233.587L207.995 268.282L199.382 275.215L174.575 233.587Z" fill="#CDE7F5"></path>
    </g>
    <g clip-path="url(#clip1_108_1158)" fill="#CDE7F5">
        <path d="M304.552 66.4201C304.546 66.4632 304.546 66.5069 304.552 66.5501C304.112 70.8348 304.794 75.1603 306.532 79.1016C308.269 83.0429 311.002 86.4644 314.462 89.0301C314.467 89.1239 314.506 89.2127 314.572 89.2801C314.614 89.2985 314.66 89.308 314.707 89.308C314.753 89.308 314.799 89.2985 314.842 89.2801C318.294 91.7758 322.332 93.3375 326.564 93.8141C330.797 94.2906 335.081 93.6658 339.002 92.0001C339.041 92.0281 339.087 92.0454 339.135 92.0505C339.183 92.0556 339.231 92.0483 339.275 92.0292C339.32 92.0101 339.358 91.9799 339.387 91.9415C339.416 91.9031 339.435 91.8578 339.442 91.8101C343.386 90.0484 346.803 87.2895 349.356 83.8053C351.909 80.321 353.51 76.2316 354.002 71.9401C353.998 71.8968 353.998 71.8533 354.002 71.8101C354.354 68.5644 354.064 65.2812 353.148 62.1477C352.232 59.0142 350.707 56.0918 348.661 53.5475C346.616 51.0032 344.089 48.8867 341.225 47.3189C338.362 45.7511 335.217 44.7627 331.972 44.4101C328.726 44.0575 325.443 44.3476 322.309 45.2639C319.176 46.1802 316.253 47.7047 313.709 49.7503C311.165 51.796 309.048 54.3228 307.481 57.1864C305.913 60.0501 304.924 63.1944 304.572 66.4401L304.552 66.4201ZM342.552 49.8101C340.226 51.9298 338.146 54.3048 336.352 56.8901C334.875 58.8816 333.538 60.9733 332.352 63.1501C331.629 62.7738 330.842 62.5364 330.032 62.4501C329.221 62.3627 328.401 62.4237 327.612 62.6301C326.908 60.2409 326.042 57.9022 325.022 55.6301C323.823 52.7173 322.303 49.9469 320.492 47.3701C324.086 45.9121 327.985 45.3691 331.841 45.7898C335.696 46.2104 339.387 47.5815 342.582 49.7801L342.552 49.8101ZM351.002 71.6101C348.427 71.6888 345.85 71.5751 343.292 71.2701C340.798 71.0229 338.325 70.5985 335.892 70.0001C335.897 69.977 335.897 69.9531 335.892 69.9301C338.39 69.8641 340.89 69.9811 343.372 70.2801C345.946 70.5247 348.497 70.9694 351.002 71.6101ZM332.702 69.4801C332.56 70.3555 332.088 71.1432 331.382 71.6805C330.677 72.2178 329.792 72.4637 328.911 72.3675C328.029 72.2713 327.218 71.8402 326.645 71.1633C326.072 70.4864 325.781 69.6154 325.832 68.7301C325.889 68.1739 326.082 67.6404 326.395 67.1766C326.707 66.7127 327.128 66.3327 327.622 66.0701C327.657 66.0897 327.696 66.1008 327.737 66.1026C327.777 66.1044 327.817 66.0967 327.854 66.0802C327.891 66.0637 327.924 66.0388 327.949 66.0075C327.975 65.9763 327.993 65.9395 328.002 65.9001C328.522 65.6922 329.084 65.6133 329.642 65.6701C330.194 65.7356 330.723 65.9346 331.182 66.2501C331.191 66.3286 331.23 66.4005 331.292 66.4501C331.366 66.4768 331.447 66.4768 331.522 66.4501C331.95 66.8209 332.282 67.2907 332.487 67.8188C332.693 68.3468 332.767 68.9171 332.702 69.4801ZM331.912 75.2501C333.249 77.409 334.422 79.6653 335.422 82.0001C336.487 84.3461 337.373 86.7697 338.072 89.2501C336.709 87.0611 335.515 84.7711 334.502 82.4001C333.454 80.0911 332.578 77.7079 331.882 75.2701L331.912 75.2501ZM325.382 74.5601C324.175 76.792 322.805 78.9312 321.282 80.9601C319.769 83.0616 318.097 85.0441 316.282 86.8901C317.498 84.6146 318.885 82.4349 320.432 80.3701C321.91 78.3102 323.538 76.3616 325.302 74.5401L325.382 74.5601ZM315.122 68.2101C312.556 67.9545 310.012 67.51 307.512 66.8801C310.09 66.7962 312.671 66.9098 315.232 67.2201C317.716 67.4616 320.179 67.8827 322.602 68.4801C322.607 68.5065 322.607 68.5336 322.602 68.5601C320.103 68.616 317.604 68.4991 315.122 68.2101ZM326.452 63.0001C325.177 60.9016 324.051 58.7163 323.082 56.4601C322.011 54.1159 321.125 51.6919 320.432 49.2101C321.791 51.4113 322.985 53.711 324.002 56.0901C325.01 58.3317 325.862 60.6405 326.552 63.0001H326.452ZM333.232 63.6801C334.415 61.527 335.752 59.4616 337.232 57.5001C338.728 55.4003 340.383 53.4179 342.182 51.5701C340.961 53.8591 339.564 56.0491 338.002 58.1201C336.566 60.1121 334.996 62.0033 333.302 63.7801L333.232 63.6801ZM319.062 48.0001C319.731 51.0648 320.737 54.0462 322.062 56.8901C323.049 59.1789 324.191 61.3974 325.482 63.5301C324.137 64.4402 323.17 65.8088 322.762 67.3801C320.311 66.7859 317.821 66.3649 315.312 66.1201C312.239 65.715 309.131 65.6379 306.042 65.8901C306.565 62.0646 308.028 58.4284 310.3 55.3066C312.572 52.1847 315.583 49.6744 319.062 48.0001ZM305.902 67.5001C308.863 68.4157 311.914 69.0124 315.002 69.2801C317.521 69.5728 320.056 69.693 322.592 69.6401C322.718 71.2214 323.402 72.7064 324.522 73.8301C322.753 75.683 321.112 77.6542 319.612 79.7301C317.75 82.1627 316.148 84.7837 314.832 87.5501C311.818 85.1924 309.428 82.1319 307.871 78.6365C306.314 75.1411 305.638 71.3174 305.902 67.5001ZM316.162 88.5001C318.391 86.4029 320.402 84.0843 322.162 81.5801C323.697 79.5178 325.084 77.349 326.312 75.0901C327.719 75.7875 329.328 75.9612 330.852 75.5801C331.571 78.0499 332.463 80.4659 333.522 82.8101C334.699 85.636 336.163 88.3335 337.892 90.8601C334.351 92.2633 330.521 92.7818 326.734 92.3706C322.948 91.9593 319.319 90.6308 316.162 88.5001ZM339.392 90.2001C338.694 87.2173 337.689 84.3151 336.392 81.5401C335.38 79.1867 334.204 76.9077 332.872 74.7201C334.207 73.8615 335.196 72.5578 335.662 71.0401C338.122 71.6427 340.621 72.0704 343.142 72.3201C346.215 72.7281 349.323 72.8019 352.412 72.5401C351.853 76.3272 350.374 79.9195 348.104 83.002C345.834 86.0844 342.843 88.5629 339.392 90.2201V90.2001ZM352.602 71.0001C349.639 70.0776 346.584 69.4808 343.492 69.2201C341.006 68.926 338.504 68.8024 336.002 68.8501C335.936 67.2269 335.286 65.6822 334.172 64.5001C335.887 62.6938 337.478 60.7727 338.932 58.7501C340.848 56.2714 342.485 53.5884 343.812 50.7501C346.829 53.1421 349.21 56.2416 350.743 59.7739C352.277 63.3062 352.915 67.1621 352.602 71.0001Z" fill="#CDE7F5"></path>
        <path d="M351.381 34.7501L346.311 43.7501C345.982 43.7149 345.65 43.7514 345.337 43.8572C345.024 43.963 344.738 44.1355 344.498 44.3628C344.259 44.5901 344.071 44.8668 343.949 45.1736C343.827 45.4805 343.773 45.8103 343.791 46.1401C340.274 43.9079 336.29 42.5165 332.149 42.0743C328.007 41.632 323.819 42.1507 319.911 43.5901C320.003 43.2768 320.027 42.9474 319.981 42.624C319.936 42.3006 319.822 41.9907 319.646 41.7151C319.471 41.4395 319.239 41.2046 318.966 41.026C318.692 40.8475 318.384 40.7296 318.061 40.6801L315.051 30.8001C314.661 29.9301 312.991 29.8001 312.121 30.2101C311.251 30.6201 310.191 31.9001 310.581 32.7701L315.841 41.6401C315.604 41.9636 315.457 42.344 315.415 42.7428C315.372 43.1415 315.437 43.5443 315.601 43.9101C315.823 44.3915 316.209 44.7779 316.691 45.0001C312.992 46.9337 309.789 49.6946 307.331 53.0681C304.874 56.4415 303.227 60.3366 302.521 64.4501C302.297 64.1975 302.02 63.998 301.709 63.8661C301.398 63.7342 301.062 63.6732 300.725 63.6875C300.388 63.7019 300.058 63.7913 299.76 63.9491C299.462 64.107 299.202 64.3294 299.001 64.6001L289.001 62.2601C288.001 62.1601 287.111 63.5601 287.001 64.5001C286.891 65.4401 287.521 67.0001 288.461 67.1201L298.761 67.0001C298.927 67.3588 299.182 67.6687 299.503 67.8999C299.823 68.1312 300.198 68.2759 300.591 68.3201C301.14 68.3775 301.692 68.2316 302.141 67.9101C301.958 72.0732 302.734 76.2225 304.411 80.0373C306.088 83.8522 308.62 87.2302 311.811 89.9101C311.285 90.0305 310.82 90.3357 310.501 90.7701C310.272 91.0894 310.128 91.4615 310.083 91.8516C310.038 92.2416 310.092 92.6368 310.241 93.0001L303.241 100.52C302.681 101.29 303.431 102.79 304.241 103.35C305.051 103.91 306.661 104.17 307.241 103.41L312.311 94.4101C312.696 94.433 313.081 94.359 313.43 94.1948C313.78 94.0306 314.082 93.7814 314.311 93.4701C314.626 93.0369 314.776 92.5043 314.731 91.9701C318.242 94.2122 322.222 95.6164 326.363 96.0742C330.504 96.532 334.694 96.031 338.611 94.6101C338.52 94.9283 338.5 95.2627 338.552 95.5894C338.605 95.9162 338.728 96.2275 338.914 96.5013C339.1 96.775 339.344 97.0046 339.629 97.1737C339.913 97.3429 340.231 97.4475 340.561 97.4801L343.561 107.38C343.941 108.25 345.621 108.38 346.491 107.97C347.361 107.56 348.331 106.3 348.001 105.43L342.701 96.5001C342.915 96.1773 343.045 95.8056 343.078 95.4194C343.112 95.0332 343.047 94.6448 342.891 94.2901C342.693 93.8199 342.34 93.4316 341.891 93.1901C345.568 91.2591 348.753 88.5092 351.199 85.1526C353.646 81.7959 355.288 77.9221 356.001 73.8301C356.232 74.0597 356.51 74.237 356.816 74.3502C357.121 74.4633 357.448 74.5096 357.773 74.4859C358.098 74.4622 358.414 74.3691 358.7 74.2128C358.986 74.0566 359.235 73.8408 359.431 73.5801L369.551 75.9401C370.491 76.0401 371.421 74.6401 371.551 73.7001C371.681 72.7601 371.051 71.1801 370.101 71.0801L359.711 71.2001C359.576 70.9039 359.38 70.6398 359.135 70.4253C358.891 70.2108 358.603 70.051 358.292 69.9564C357.98 69.8617 357.653 69.8345 357.33 69.8766C357.007 69.9186 356.697 70.0289 356.421 70.2001C356.605 66.0341 355.825 61.8817 354.143 58.066C352.461 54.2503 349.921 50.8741 346.721 48.2001C347.227 48.0715 347.672 47.771 347.981 47.3501C348.209 47.0367 348.354 46.6707 348.403 46.2861C348.452 45.9015 348.403 45.5107 348.261 45.1501L355.361 37.5601C355.921 36.7901 355.181 35.2901 354.411 34.7301C353.641 34.1701 351.941 34.0001 351.381 34.7501ZM311.571 32.3201C311.753 31.8353 312.11 31.4359 312.571 31.2001C313.061 31.0187 313.603 31.0367 314.081 31.2501L317.001 40.8101C316.936 40.8255 316.873 40.8456 316.811 40.8701L316.711 40.9301L311.571 32.3201ZM288.561 66.0001C288.235 65.6005 288.068 65.0951 288.091 64.5801C288.132 64.3267 288.223 64.0839 288.358 63.8659C288.494 63.6479 288.672 63.459 288.881 63.3101L298.581 65.5601C298.577 65.6134 298.577 65.6669 298.581 65.7201C298.576 65.7733 298.576 65.8269 298.581 65.8801L288.561 66.0001ZM306.261 102.78C305.751 102.863 305.228 102.756 304.791 102.48C304.396 102.147 304.145 101.674 304.091 101.16L310.901 93.8701L311.001 94.0001L311.171 94.1001L306.261 102.78ZM347.001 105.88C346.82 106.366 346.463 106.766 346.001 107C345.52 107.195 344.982 107.195 344.501 107L341.591 97.4101H341.691L341.861 97.3101L347.001 105.88ZM370.001 72.1601C370.33 72.5583 370.501 73.0639 370.481 73.5801C370.394 74.0933 370.111 74.5525 369.691 74.8601L359.901 72.5801V72.4401V72.2801L370.001 72.1601ZM354.861 71.8901C354.311 76.9417 352.276 81.717 349.014 85.6131C345.752 89.5092 341.409 92.3512 336.532 93.7803C331.656 95.2094 326.466 95.1615 321.617 93.6426C316.768 92.1237 312.477 89.202 309.288 85.2463C306.098 81.2907 304.152 76.4786 303.696 71.4178C303.239 66.3569 304.293 61.2743 306.723 56.8117C309.153 52.3492 312.851 48.7068 317.35 46.3447C321.849 43.9826 326.947 43.0067 332.001 43.5401C338.785 44.2775 344.998 47.6775 349.277 52.9931C353.556 58.3087 355.55 65.1054 354.821 71.8901H354.861ZM353.731 35.6801C354.13 36.0114 354.384 36.4847 354.441 37.0001L347.581 44.3301L347.441 44.2101L347.341 44.1501L352.261 35.3901C352.77 35.2927 353.297 35.3966 353.731 35.6801Z" fill="#CDE7F5"></path>
    </g>
    <path d="M1717.94 71.0576C1716.53 69.6475 1714.24 69.6475 1712.83 71.0576L1709 74.8911L1705.17 71.0576C1703.76 69.6475 1701.47 69.6475 1700.06 71.0576C1698.65 72.4698 1698.65 74.7567 1700.06 76.1689L1703.89 80.0003L1700.06 83.8316C1698.65 85.2439 1698.65 87.5307 1700.06 88.9408C1700.76 89.648 1701.69 90.0016 1702.61 90.0016C1703.54 90.0016 1704.46 89.648 1705.17 88.9408L1709 85.1095L1712.83 88.9408C1713.54 89.648 1714.46 90.0016 1715.39 90.0016C1716.31 90.0016 1717.24 89.648 1717.94 88.9408C1719.35 87.5307 1719.35 85.2439 1717.94 83.8316L1714.11 80.0003L1717.94 76.1689C1719.35 74.7567 1719.35 72.4698 1717.94 71.0576Z" fill="#CDE7F5"></path>
    <path d="M1793.7 261.125C1791.59 262.658 1789.89 264.686 1788.75 267.031C1787.07 269.844 1786.11 271.25 1784.62 271.25C1783.13 271.25 1782.17 269.9 1780.48 267.031C1778.8 264.162 1776.38 260 1771.48 260C1766.59 260 1764.23 264.05 1762.48 267.031C1760.74 270.012 1759.84 271.25 1758.38 271.25C1756.92 271.25 1755.93 269.9 1754.24 267.031C1752.56 264.162 1750.14 260 1745.24 260C1740.35 260 1737.99 264.05 1736.24 267.031C1734.5 270.012 1733.63 271.25 1732.11 271.25C1730.59 271.25 1729.66 269.9 1728 267.031C1726.86 264.686 1725.16 262.658 1723.05 261.125C1722.63 260.918 1722.17 260.82 1721.7 260.84C1721.23 260.859 1720.77 260.995 1720.37 261.235C1719.97 261.475 1719.63 261.812 1719.39 262.216C1719.15 262.619 1719.02 263.075 1719 263.544C1718.98 264.014 1719.08 264.481 1719.29 264.904C1719.49 265.326 1719.8 265.69 1720.18 265.962C1721.44 267.025 1722.45 268.35 1723.14 269.844C1724.85 272.825 1727.22 276.875 1732.11 276.875C1737 276.875 1739.39 272.825 1741.11 269.844C1742.82 266.863 1743.72 265.625 1745.24 265.625C1746.76 265.625 1747.69 266.975 1749.35 269.844C1751.01 272.712 1753.46 276.875 1758.38 276.875C1763.3 276.875 1765.63 272.825 1767.38 269.844C1769.12 266.863 1769.99 265.625 1771.51 265.625C1773.03 265.625 1773.96 266.975 1775.65 269.844C1777.33 272.712 1779.75 276.875 1784.65 276.875C1789.54 276.875 1791.9 272.825 1793.65 269.844C1794.29 268.363 1795.25 267.039 1796.46 265.962C1796.86 265.703 1797.19 265.345 1797.42 264.922C1797.65 264.498 1797.76 264.024 1797.75 263.544C1797.74 263.075 1797.6 262.619 1797.36 262.216C1797.12 261.812 1796.79 261.475 1796.38 261.235C1795.98 260.995 1795.53 260.859 1795.06 260.84C1794.59 260.82 1794.12 260.918 1793.7 261.125Z" fill="#CDE7F5"></path>
    <path d="M1793.7 289.25C1791.59 290.783 1789.89 292.811 1788.75 295.156C1787.07 297.969 1786.11 299.375 1784.62 299.375C1783.13 299.375 1782.17 298.025 1780.48 295.156C1778.8 292.287 1776.38 288.125 1771.48 288.125C1766.59 288.125 1764.23 292.175 1762.48 295.156C1760.74 298.137 1759.84 299.375 1758.38 299.375C1756.92 299.375 1755.93 298.025 1754.24 295.156C1752.56 292.287 1750.14 288.125 1745.24 288.125C1740.35 288.125 1737.99 292.175 1736.24 295.156C1734.5 298.137 1733.63 299.375 1732.11 299.375C1730.59 299.375 1729.66 298.025 1728 295.156C1726.86 292.811 1725.16 290.783 1723.05 289.25C1722.63 289.043 1722.17 288.945 1721.7 288.965C1721.23 288.984 1720.77 289.12 1720.37 289.36C1719.97 289.6 1719.63 289.937 1719.39 290.341C1719.15 290.744 1719.02 291.2 1719 291.669C1718.98 292.139 1719.08 292.606 1719.29 293.029C1719.49 293.451 1719.8 293.815 1720.18 294.088C1721.44 295.15 1722.45 296.475 1723.14 297.969C1724.85 300.95 1727.22 305 1732.11 305C1737 305 1739.39 300.95 1741.11 297.969C1742.82 294.988 1743.72 293.75 1745.24 293.75C1746.76 293.75 1747.69 295.1 1749.35 297.969C1751.01 300.837 1753.46 305 1758.38 305C1763.3 305 1765.63 300.95 1767.38 297.969C1769.12 294.988 1769.99 293.75 1771.51 293.75C1773.03 293.75 1773.96 295.1 1775.65 297.969C1777.33 300.837 1779.75 305 1784.65 305C1789.54 305 1791.9 300.95 1793.65 297.969C1794.29 296.488 1795.25 295.164 1796.46 294.088C1796.84 293.815 1797.15 293.451 1797.36 293.029C1797.56 292.606 1797.66 292.139 1797.64 291.669C1797.61 291.215 1797.48 290.775 1797.25 290.385C1797.01 289.995 1796.69 289.667 1796.3 289.429C1795.92 289.192 1795.48 289.051 1795.03 289.02C1794.57 288.989 1794.12 289.068 1793.7 289.25Z" fill="#CDE7F5"></path>
    <g clip-path="url(#clip2_108_1158)" fill="#CDE7F5">
        <path d="M1504.17 333.535L1502.95 333.863C1502.7 333.933 1502.43 334.002 1502.18 334.051L1498.33 334.978L1502.25 338.851C1496.89 340.517 1491.19 340.8 1485.69 339.673C1480.19 338.545 1475.06 336.045 1470.78 332.404L1501.09 301.734L1512.31 312.826L1515.92 309.18L1504.7 298.088L1512.66 290.037C1514.86 291.335 1517.46 291.784 1519.97 291.299C1522.48 290.814 1524.73 289.429 1526.29 287.404C1527.84 285.379 1528.61 282.854 1528.44 280.304C1528.27 277.754 1527.17 275.355 1525.35 273.558C1523.53 271.761 1521.12 270.689 1518.57 270.546C1516.02 270.402 1513.5 271.196 1511.5 272.778C1509.49 274.359 1508.13 276.62 1507.67 279.135C1507.21 281.649 1507.69 284.244 1509.01 286.431L1501.06 294.491L1490.09 283.713L1486.55 287.303L1497.45 298.143L1467.12 328.81C1463.43 324.575 1460.87 319.473 1459.68 313.982C1458.49 308.49 1458.72 302.786 1460.33 297.404L1464.73 301.76L1465.51 297.778C1465.57 297.45 1465.63 297.123 1465.67 296.793L1465.85 295.688L1458.38 288.258L1456.92 291.761C1453.9 298.871 1453.09 306.723 1454.59 314.301C1456.08 321.878 1459.82 328.832 1465.31 334.261C1470.8 339.691 1477.8 343.346 1485.4 344.753C1492.99 346.161 1500.83 345.256 1507.91 342.155L1511.39 340.674L1504.17 333.535ZM1465.07 330.879C1460.53 325.733 1457.54 319.399 1456.46 312.617C1455.38 305.835 1456.26 298.887 1458.99 292.585L1459.2 292.083L1463.57 296.406C1463.53 296.708 1463.24 297.941 1463.17 298.225L1459.79 295.077C1454.62 307.703 1456.71 320.19 1465.62 330.33L1465.07 330.879ZM1514.23 284.852C1513.48 284.109 1512.97 283.16 1512.76 282.125C1512.55 281.091 1512.65 280.017 1513.05 279.04C1513.44 278.062 1514.12 277.225 1515 276.634C1515.87 276.043 1516.9 275.725 1517.96 275.719C1519.02 275.713 1520.05 276.021 1520.93 276.603C1521.81 277.184 1522.5 278.014 1522.91 278.987C1523.32 279.96 1523.43 281.033 1523.23 282.07C1523.03 283.106 1522.53 284.061 1521.79 284.812C1520.79 285.818 1519.43 286.387 1518.02 286.395C1516.6 286.402 1515.24 285.847 1514.23 284.852ZM1512.1 275.236C1513.18 274.153 1514.53 273.389 1516.01 273.027C1517.49 272.665 1519.05 272.72 1520.5 273.186C1521.95 273.652 1523.25 274.511 1524.24 275.667C1525.24 276.824 1525.89 278.233 1526.14 279.738C1526.38 281.244 1526.2 282.788 1525.62 284.2C1525.04 285.611 1524.09 286.835 1522.86 287.735C1521.62 288.636 1520.17 289.179 1518.65 289.303C1517.13 289.428 1515.6 289.129 1514.24 288.441L1514.79 287.878C1516.4 288.617 1518.22 288.765 1519.93 288.296C1521.63 287.827 1523.12 286.77 1524.13 285.313C1525.13 283.855 1525.6 282.089 1525.43 280.326C1525.26 278.562 1524.48 276.914 1523.22 275.671C1521.95 274.428 1520.29 273.669 1518.53 273.529C1516.76 273.388 1515 273.875 1513.56 274.903C1512.12 275.931 1511.09 277.434 1510.64 279.149C1510.2 280.864 1510.37 282.68 1511.14 284.279L1510.59 284.835C1509.79 283.28 1509.51 281.511 1509.77 279.782C1510.04 278.053 1510.85 276.453 1512.08 275.213L1512.1 275.236ZM1467 333.139L1466.55 332.567C1466.55 332.567 1499.07 298.574 1499.57 298.077L1489.63 287.318L1490.14 286.794L1500.86 296.625C1501.49 296.014 1512.33 286.268 1512.33 286.268L1512.85 286.777C1512.85 286.777 1503.17 297.768 1502.74 298.182L1512.81 309.19L1512.3 309.713L1501.21 299.462L1467 333.139ZM1507.05 340.219C1500.77 343.003 1493.84 343.942 1487.05 342.928C1480.26 341.913 1473.9 338.987 1468.71 334.491L1469.22 333.973C1479.46 342.78 1491.95 344.943 1504.52 339.633L1501.37 336.271C1501.65 336.203 1503.25 336.062 1503.52 335.986L1507.55 339.964L1507.05 340.219Z" fill="#CDE7F5"></path>
    </g>
    <g clip-path="url(#clip3_108_1158)" fill="#CDE7F5">
        <path d="M1373.88 135.86C1379.7 133.09 1396.57 142.53 1399.64 136.86C1402.71 131.19 1385.64 122.19 1384.77 115.8C1383.9 109.41 1398.12 96.28 1393.68 91.6C1389.24 86.92 1375.39 100.41 1369.06 99.24C1362.73 98.07 1354.62 80.52 1348.8 83.3C1342.98 86.08 1351.53 103.41 1348.46 109.08C1345.39 114.75 1326.19 117 1327 123.41C1327.81 129.82 1347 127 1351.44 131.7C1355.88 136.4 1352.11 155.34 1358.44 156.52C1364.77 157.7 1368.06 138.64 1373.88 135.86ZM1359.08 150C1353.84 149 1356.96 133.34 1353.28 129.47C1349.6 125.6 1333.78 127.9 1333.08 122.61C1332.38 117.32 1348.27 115.44 1350.82 110.75C1353.37 106.06 1346.29 91.75 1351.1 89.42C1355.91 87.09 1362.62 101.65 1367.86 102.62C1373.1 103.59 1384.57 92.43 1388.24 96.3C1391.91 100.17 1380.17 111.03 1380.86 116.3C1381.55 121.57 1395.72 129.06 1393.17 133.75C1390.62 138.44 1376.67 130.62 1371.85 132.92C1367.03 135.22 1364.33 151 1359.08 150Z" fill="#CDE7F5"></path>
        <path d="M1364.64 117.93C1364.61 117.788 1364.53 117.663 1364.41 117.581C1364.29 117.499 1364.14 117.466 1364 117.49L1339.32 120.74C1339.17 120.753 1339.04 120.821 1338.94 120.932C1338.85 121.042 1338.8 121.185 1338.81 121.33C1338.84 121.473 1338.92 121.6 1339.04 121.682C1339.16 121.765 1339.31 121.796 1339.45 121.77L1364.13 118.52C1364.2 118.515 1364.27 118.496 1364.34 118.463C1364.4 118.431 1364.46 118.386 1364.51 118.331C1364.55 118.276 1364.59 118.212 1364.61 118.144C1364.64 118.075 1364.64 118.002 1364.64 117.93Z" fill="#CDE7F5"></path>
        <path d="M1360.77 122.31C1360.72 121.831 1360.52 121.379 1360.21 121.012C1359.89 120.646 1359.48 120.381 1359.01 120.251C1358.55 120.121 1358.06 120.133 1357.6 120.284C1357.14 120.436 1356.74 120.72 1356.44 121.101C1356.14 121.482 1355.97 121.942 1355.94 122.423C1355.9 122.905 1356.01 123.385 1356.25 123.803C1356.49 124.221 1356.85 124.558 1357.29 124.772C1357.72 124.985 1358.21 125.064 1358.68 125C1359.31 124.913 1359.88 124.583 1360.28 124.08C1360.67 123.578 1360.84 122.942 1360.77 122.31Z" fill="#CDE7F5"></path>
        <path d="M1353.45 122.63C1353.41 122.33 1353.28 122.049 1353.09 121.822C1352.89 121.595 1352.62 121.432 1352.33 121.354C1352.04 121.277 1351.73 121.287 1351.44 121.384C1351.16 121.481 1350.91 121.661 1350.72 121.901C1350.54 122.141 1350.43 122.43 1350.41 122.732C1350.39 123.033 1350.46 123.334 1350.61 123.596C1350.76 123.858 1350.99 124.07 1351.26 124.204C1351.53 124.338 1351.83 124.389 1352.13 124.35C1352.33 124.324 1352.53 124.259 1352.7 124.159C1352.87 124.058 1353.03 123.924 1353.15 123.764C1353.27 123.604 1353.36 123.422 1353.41 123.227C1353.47 123.033 1353.48 122.83 1353.45 122.63Z" fill="#CDE7F5"></path>
        <path d="M1355 114.29C1354.93 113.778 1354.72 113.298 1354.38 112.911C1354.04 112.523 1353.59 112.244 1353.09 112.111C1352.59 111.977 1352.06 111.995 1351.58 112.16C1351.09 112.326 1350.66 112.633 1350.34 113.042C1350.03 113.452 1349.84 113.945 1349.81 114.46C1349.78 114.975 1349.9 115.488 1350.15 115.935C1350.41 116.382 1350.8 116.743 1351.26 116.972C1351.72 117.2 1352.24 117.287 1352.75 117.22C1353.09 117.176 1353.42 117.065 1353.72 116.893C1354.02 116.722 1354.28 116.494 1354.48 116.222C1354.69 115.949 1354.85 115.639 1354.94 115.307C1355.02 114.976 1355.05 114.63 1355 114.29Z" fill="#CDE7F5"></path>
        <path d="M1343 124C1342.99 123.917 1342.96 123.836 1342.92 123.763C1342.88 123.691 1342.82 123.627 1342.76 123.576C1342.69 123.525 1342.61 123.487 1342.53 123.466C1342.45 123.444 1342.37 123.439 1342.28 123.45C1342.11 123.473 1341.96 123.561 1341.86 123.696C1341.75 123.831 1341.71 124.002 1341.73 124.17C1341.75 124.338 1341.84 124.491 1341.98 124.594C1342.11 124.697 1342.28 124.743 1342.45 124.72C1342.54 124.709 1342.62 124.682 1342.69 124.639C1342.76 124.597 1342.83 124.541 1342.88 124.474C1342.93 124.407 1342.97 124.331 1342.99 124.25C1343.01 124.168 1343.01 124.083 1343 124Z" fill="#CDE7F5"></path>
        <path d="M1360.84 145.31L1365.6 119.58C1365.64 119.507 1365.66 119.426 1365.66 119.344C1365.66 119.261 1365.64 119.18 1365.6 119.106C1365.57 119.032 1365.51 118.968 1365.45 118.918C1365.38 118.868 1365.31 118.834 1365.23 118.819C1365.15 118.804 1365.06 118.807 1364.98 118.83C1364.9 118.852 1364.83 118.893 1364.77 118.948C1364.71 119.003 1364.66 119.072 1364.63 119.149C1364.6 119.226 1364.59 119.308 1364.6 119.39L1359.81 145.12C1359.77 145.265 1359.8 145.418 1359.87 145.547C1359.94 145.676 1360.07 145.77 1360.21 145.81C1360.36 145.824 1360.51 145.78 1360.63 145.687C1360.74 145.594 1360.82 145.459 1360.84 145.31Z" fill="#CDE7F5"></path>
        <path d="M1369.88 128.07C1369.97 127.597 1369.92 127.108 1369.74 126.664C1369.55 126.22 1369.24 125.841 1368.83 125.575C1368.43 125.309 1367.96 125.167 1367.48 125.168C1367 125.17 1366.53 125.313 1366.13 125.582C1365.73 125.85 1365.42 126.23 1365.23 126.675C1365.05 127.12 1365 127.61 1365.09 128.082C1365.19 128.555 1365.42 128.989 1365.76 129.33C1366.1 129.671 1366.53 129.904 1367 130C1367.32 130.064 1367.64 130.065 1367.96 130.002C1368.28 129.939 1368.58 129.815 1368.85 129.635C1369.11 129.456 1369.34 129.225 1369.52 128.957C1369.7 128.688 1369.82 128.387 1369.88 128.07Z" fill="#CDE7F5"></path>
        <path d="M1366 132.29C1365.7 132.234 1365.39 132.267 1365.11 132.387C1364.83 132.507 1364.59 132.707 1364.43 132.963C1364.26 133.218 1364.17 133.517 1364.18 133.822C1364.18 134.127 1364.27 134.424 1364.45 134.676C1364.62 134.927 1364.86 135.121 1365.15 135.234C1365.43 135.347 1365.74 135.373 1366.04 135.309C1366.34 135.246 1366.61 135.095 1366.82 134.876C1367.03 134.657 1367.18 134.38 1367.23 134.08C1367.3 133.68 1367.22 133.267 1366.99 132.931C1366.75 132.596 1366.4 132.365 1366 132.29Z" fill="#CDE7F5"></path>
        <path d="M1360.61 131.3C1360.71 130.79 1360.65 130.264 1360.45 129.787C1360.24 129.309 1359.9 128.903 1359.47 128.62C1359.04 128.336 1358.53 128.188 1358.01 128.194C1357.49 128.2 1356.98 128.359 1356.56 128.652C1356.13 128.946 1355.8 129.359 1355.61 129.841C1355.41 130.322 1355.37 130.85 1355.48 131.358C1355.58 131.865 1355.84 132.329 1356.21 132.691C1356.58 133.053 1357.05 133.296 1357.56 133.39C1358.24 133.516 1358.95 133.367 1359.52 132.975C1360.09 132.583 1360.48 131.981 1360.61 131.3Z" fill="#CDE7F5"></path>
        <path d="M1363.31 143.13C1363.3 143.213 1363.3 143.298 1363.31 143.38C1363.33 143.463 1363.36 143.541 1363.41 143.611C1363.46 143.681 1363.52 143.74 1363.59 143.786C1363.66 143.833 1363.74 143.864 1363.82 143.88C1363.99 143.909 1364.16 143.871 1364.3 143.774C1364.44 143.677 1364.54 143.528 1364.57 143.36C1364.6 143.193 1364.56 143.021 1364.47 142.882C1364.37 142.744 1364.22 142.649 1364.05 142.62C1363.97 142.604 1363.89 142.605 1363.8 142.622C1363.72 142.639 1363.64 142.672 1363.58 142.72C1363.51 142.767 1363.45 142.828 1363.4 142.899C1363.36 142.969 1363.33 143.048 1363.31 143.13Z" fill="#CDE7F5"></path>
        <path d="M1366.28 119.48L1388.93 131.77C1388.99 131.812 1389.06 131.84 1389.13 131.854C1389.21 131.867 1389.28 131.865 1389.35 131.848C1389.42 131.831 1389.49 131.799 1389.55 131.754C1389.6 131.71 1389.65 131.653 1389.69 131.589C1389.72 131.525 1389.74 131.454 1389.75 131.381C1389.75 131.308 1389.74 131.234 1389.72 131.166C1389.69 131.097 1389.65 131.034 1389.6 130.981C1389.55 130.929 1389.49 130.887 1389.42 130.86L1366.77 118.57C1366.65 118.491 1366.5 118.465 1366.35 118.497C1366.21 118.528 1366.08 118.616 1366 118.74C1365.95 118.876 1365.94 119.029 1365.99 119.167C1366.05 119.305 1366.15 119.417 1366.28 119.48Z" fill="#CDE7F5"></path>
        <path d="M1373.49 121.21C1373.91 121.435 1374.4 121.529 1374.87 121.481C1375.35 121.433 1375.8 121.245 1376.17 120.94C1376.54 120.635 1376.82 120.227 1376.96 119.768C1377.09 119.308 1377.09 118.818 1376.96 118.359C1376.82 117.9 1376.54 117.492 1376.17 117.187C1375.8 116.882 1375.35 116.694 1374.87 116.646C1374.4 116.598 1373.91 116.692 1373.49 116.917C1373.07 117.142 1372.72 117.488 1372.49 117.91C1372.19 118.48 1372.12 119.148 1372.31 119.767C1372.5 120.386 1372.92 120.905 1373.49 121.21Z" fill="#CDE7F5"></path>
        <path d="M1378.62 122C1378.47 122.267 1378.41 122.572 1378.44 122.876C1378.46 123.18 1378.58 123.47 1378.77 123.708C1378.96 123.946 1379.22 124.122 1379.51 124.214C1379.8 124.305 1380.11 124.308 1380.4 124.223C1380.7 124.137 1380.96 123.966 1381.15 123.731C1381.35 123.497 1381.47 123.21 1381.5 122.906C1381.53 122.603 1381.47 122.297 1381.33 122.027C1381.19 121.757 1380.97 121.535 1380.7 121.39C1380.34 121.197 1379.93 121.153 1379.54 121.267C1379.15 121.381 1378.82 121.645 1378.62 122Z" fill="#CDE7F5"></path>
        <path d="M1373.52 131.34C1373.98 131.589 1374.5 131.697 1375.01 131.651C1375.53 131.605 1376.02 131.406 1376.43 131.08C1376.83 130.754 1377.13 130.315 1377.28 129.82C1377.44 129.324 1377.44 128.794 1377.29 128.296C1377.14 127.799 1376.85 127.356 1376.45 127.025C1376.05 126.694 1375.56 126.488 1375.05 126.435C1374.53 126.382 1374.01 126.483 1373.55 126.726C1373.09 126.969 1372.72 127.343 1372.47 127.8C1372.15 128.409 1372.07 129.123 1372.27 129.786C1372.47 130.45 1372.92 131.008 1373.52 131.34Z" fill="#CDE7F5"></path>
        <path d="M1388.11 127.83C1388.19 127.879 1388.27 127.912 1388.36 127.927C1388.45 127.942 1388.53 127.939 1388.62 127.917C1388.71 127.896 1388.79 127.857 1388.86 127.803C1388.93 127.748 1388.99 127.68 1389.03 127.602C1389.07 127.524 1389.1 127.439 1389.1 127.35C1389.11 127.262 1389.1 127.173 1389.07 127.089C1389.04 127.005 1389 126.928 1388.94 126.863C1388.88 126.798 1388.8 126.746 1388.72 126.71C1388.65 126.661 1388.57 126.628 1388.48 126.613C1388.39 126.598 1388.3 126.602 1388.22 126.623C1388.13 126.644 1388.05 126.683 1387.98 126.738C1387.91 126.792 1387.85 126.86 1387.81 126.938C1387.77 127.016 1387.74 127.102 1387.73 127.19C1387.73 127.278 1387.74 127.367 1387.76 127.451C1387.79 127.535 1387.84 127.612 1387.9 127.677C1387.96 127.742 1388.03 127.794 1388.11 127.83Z" fill="#CDE7F5"></path>
        <path d="M1365.94 117.44C1365.99 117.491 1366.05 117.532 1366.12 117.56C1366.19 117.588 1366.26 117.602 1366.33 117.602C1366.4 117.602 1366.48 117.588 1366.54 117.56C1366.61 117.532 1366.67 117.491 1366.72 117.44L1384.64 100.44C1384.7 100.394 1384.74 100.337 1384.78 100.273C1384.81 100.209 1384.83 100.139 1384.83 100.068C1384.84 99.996 1384.83 99.9239 1384.81 99.8556C1384.79 99.7873 1384.75 99.7242 1384.7 99.6701C1384.6 99.5687 1384.46 99.512 1384.31 99.512C1384.17 99.512 1384.03 99.5687 1383.92 99.6701L1366 116.67C1365.89 116.765 1365.83 116.899 1365.81 117.043C1365.8 117.187 1365.85 117.33 1365.94 117.44Z" fill="#CDE7F5"></path>
        <path d="M1366.36 111.76C1366.69 112.108 1367.12 112.35 1367.59 112.456C1368.06 112.561 1368.55 112.525 1368.99 112.353C1369.44 112.181 1369.83 111.879 1370.11 111.487C1370.38 111.094 1370.54 110.629 1370.55 110.149C1370.56 109.668 1370.43 109.195 1370.18 108.789C1369.92 108.383 1369.55 108.061 1369.11 107.866C1368.67 107.67 1368.19 107.609 1367.71 107.69C1367.24 107.771 1366.8 107.99 1366.45 108.32C1366.22 108.539 1366.03 108.802 1365.9 109.094C1365.77 109.386 1365.7 109.701 1365.69 110.021C1365.68 110.341 1365.74 110.66 1365.85 110.958C1365.97 111.257 1366.14 111.529 1366.36 111.76Z" fill="#CDE7F5"></path>
        <path d="M1374.27 107.26C1374.49 107.051 1374.65 106.78 1374.71 106.483C1374.78 106.187 1374.76 105.876 1374.65 105.592C1374.54 105.308 1374.35 105.062 1374.1 104.886C1373.85 104.71 1373.56 104.612 1373.25 104.604C1372.95 104.595 1372.65 104.677 1372.39 104.839C1372.13 105.001 1371.93 105.236 1371.81 105.514C1371.68 105.792 1371.64 106.1 1371.69 106.4C1371.74 106.7 1371.88 106.979 1372.09 107.2C1372.23 107.349 1372.4 107.468 1372.58 107.552C1372.77 107.635 1372.97 107.681 1373.17 107.687C1373.37 107.692 1373.57 107.657 1373.76 107.584C1373.95 107.511 1374.13 107.401 1374.27 107.26Z" fill="#CDE7F5"></path>
        <path d="M1375.75 114.86C1376.11 115.237 1376.57 115.499 1377.07 115.615C1377.58 115.73 1378.11 115.693 1378.59 115.507C1379.08 115.322 1379.49 114.998 1379.79 114.575C1380.09 114.152 1380.26 113.649 1380.27 113.131C1380.29 112.613 1380.15 112.102 1379.87 111.663C1379.6 111.225 1379.2 110.878 1378.72 110.667C1378.25 110.456 1377.72 110.39 1377.21 110.478C1376.7 110.566 1376.23 110.803 1375.85 111.16C1375.6 111.396 1375.4 111.679 1375.26 111.993C1375.12 112.307 1375.04 112.645 1375.03 112.989C1375.02 113.333 1375.08 113.675 1375.21 113.996C1375.33 114.318 1375.51 114.611 1375.75 114.86Z" fill="#CDE7F5"></path>
        <path d="M1380.64 99.0899C1380.52 98.9715 1380.36 98.905 1380.19 98.905C1380.02 98.905 1379.86 98.9715 1379.74 99.0899C1379.68 99.1486 1379.63 99.2186 1379.6 99.2959C1379.57 99.3732 1379.55 99.4561 1379.55 99.5399C1379.55 99.6238 1379.57 99.7067 1379.6 99.784C1379.63 99.8613 1379.68 99.9313 1379.74 99.9899C1379.86 100.109 1380.02 100.176 1380.19 100.176C1380.37 100.176 1380.53 100.109 1380.65 99.9899C1380.76 99.8665 1380.82 99.705 1380.82 99.538C1380.82 99.371 1380.76 99.2109 1380.64 99.0899Z" fill="#CDE7F5"></path>
        <path d="M1365 116.55L1354.24 94C1354.22 93.9338 1354.18 93.8736 1354.13 93.8232C1354.08 93.7728 1354.02 93.7333 1353.95 93.7069C1353.88 93.6806 1353.81 93.6681 1353.74 93.6701C1353.67 93.6722 1353.6 93.6888 1353.54 93.719C1353.47 93.7491 1353.42 93.7921 1353.37 93.8453C1353.32 93.8986 1353.29 93.9609 1353.26 94.0285C1353.24 94.096 1353.23 94.1674 1353.24 94.2382C1353.25 94.309 1353.27 94.3776 1353.3 94.44L1364.06 117C1364.08 117.071 1364.12 117.137 1364.17 117.193C1364.22 117.249 1364.28 117.294 1364.35 117.324C1364.42 117.354 1364.49 117.37 1364.57 117.369C1364.64 117.368 1364.71 117.351 1364.78 117.319C1364.85 117.287 1364.91 117.241 1364.96 117.183C1365.01 117.126 1365.04 117.059 1365.06 116.987C1365.08 116.915 1365.09 116.84 1365.07 116.766C1365.06 116.692 1365.03 116.622 1364.99 116.56L1365 116.55Z" fill="#CDE7F5"></path>
        <path d="M1356.14 113.75C1356.35 114.182 1356.68 114.544 1357.1 114.788C1357.51 115.032 1357.98 115.149 1358.46 115.123C1358.94 115.097 1359.4 114.929 1359.79 114.642C1360.17 114.354 1360.46 113.959 1360.62 113.507C1360.78 113.054 1360.81 112.565 1360.69 112.1C1360.57 111.634 1360.32 111.214 1359.96 110.893C1359.6 110.571 1359.16 110.362 1358.69 110.292C1358.21 110.222 1357.73 110.295 1357.29 110.5C1357 110.637 1356.74 110.83 1356.53 111.068C1356.31 111.306 1356.15 111.584 1356.04 111.886C1355.93 112.188 1355.89 112.508 1355.91 112.828C1355.92 113.148 1356 113.461 1356.14 113.75Z" fill="#CDE7F5"></path>
        <path d="M1357.54 106C1357.42 105.722 1357.21 105.487 1356.95 105.327C1356.69 105.166 1356.39 105.087 1356.09 105.098C1355.78 105.11 1355.49 105.212 1355.24 105.393C1355 105.573 1354.81 105.822 1354.71 106.109C1354.6 106.396 1354.59 106.707 1354.66 107.003C1354.74 107.298 1354.9 107.565 1355.13 107.768C1355.35 107.971 1355.64 108.102 1355.94 108.143C1356.24 108.184 1356.55 108.135 1356.82 108C1357.18 107.825 1357.45 107.519 1357.59 107.145C1357.72 106.772 1357.71 106.362 1357.54 106Z" fill="#CDE7F5"></path>
        <path d="M1361.74 105.68C1361.96 106.145 1362.32 106.534 1362.76 106.799C1363.2 107.063 1363.71 107.191 1364.23 107.165C1364.74 107.14 1365.24 106.963 1365.65 106.657C1366.06 106.351 1366.38 105.929 1366.55 105.445C1366.73 104.96 1366.76 104.435 1366.63 103.935C1366.51 103.435 1366.24 102.982 1365.86 102.634C1365.48 102.286 1365.01 102.058 1364.5 101.979C1363.99 101.9 1363.47 101.974 1363 102.19C1362.69 102.335 1362.41 102.541 1362.17 102.795C1361.94 103.05 1361.76 103.348 1361.64 103.672C1361.53 103.997 1361.47 104.341 1361.49 104.686C1361.51 105.031 1361.59 105.369 1361.74 105.68Z" fill="#CDE7F5"></path>
        <path d="M1352.6 97.7001C1352.56 97.624 1352.51 97.5557 1352.45 97.4991C1352.39 97.4426 1352.32 97.3989 1352.24 97.3706C1352.16 97.3422 1352.07 97.3298 1351.99 97.3341C1351.9 97.3383 1351.82 97.359 1351.75 97.3951C1351.67 97.4313 1351.6 97.482 1351.54 97.5445C1351.49 97.607 1351.44 97.6801 1351.42 97.7595C1351.39 97.8389 1351.38 97.9231 1351.38 98.0073C1351.38 98.0914 1351.4 98.174 1351.44 98.2501C1351.51 98.404 1351.64 98.5225 1351.81 98.5797C1351.97 98.6369 1352.14 98.6281 1352.3 98.5551C1352.45 98.4822 1352.57 98.3512 1352.63 98.1908C1352.68 98.0305 1352.67 97.854 1352.6 97.7001Z" fill="#CDE7F5"></path>
    </g>
    <defs>
        <clipPath id="clip0_108_1158">
            <rect width="84.55" height="76.23" fill="white" transform="translate(154.961 305.941) rotate(-96.7654)"></rect>
        </clipPath>
        <clipPath id="clip1_108_1158">
            <rect width="84.53" height="78.2" fill="white" transform="translate(287 30)"></rect>
        </clipPath>
        <clipPath id="clip2_108_1158">
            <rect width="85.16" height="73.96" fill="white" transform="translate(1552.68 307.984) rotate(141.628)"></rect>
        </clipPath>
        <clipPath id="clip3_108_1158">
            <rect width="73.01" height="73.57" fill="white" transform="translate(1327 83)"></rect>
        </clipPath>
    </defs>
</svg>