<svg xmlns="http://www.w3.org/2000/svg" width="1920" height="124.603" viewBox="0 0 1920 124.603">
  <path id="footersvg" d="M1674.667,11.76c-25.067,5.5-62.133,15.8-114.667,14-57.067-1.9-59.6-15.6-110.667-18-80.133-3.8-96,28.8-170.667,22-51.867-4.7-50.267-20.9-100-22-56.933-1.2-66.133,19.9-125.333,20-53.6.1-55.333-17.1-110.667-18-59.333-1-65.067,18.7-128,22-63.867,3.3-68-16.5-142.667-18-68.667-1.4-72,15.2-144,16-79.067.8-84.533-20.4-155.867-19-83.733,1.6-102.4,29.6-177.467,33C150.4,45.76,84,41.96,0,10.76V124.6H1920V10.76C1805.067-7.34,1726.4.46,1674.667,11.76Z" transform="translate(0 0.003)" fill="#fff"/>
</svg>
