<svg id="Layer_1" data-name="Layer 1" xmlns="http://www.w3.org/2000/svg" viewBox="0 0 477.6 387.63"><defs><style>.cls-1{fill:#15294f;}.cls-2{fill:#7a93cb;}</style></defs><path class="cls-1" d="M467.61,268.08c-.4-12.27-.32-24.55-.16-36.82.06-4.72-.78-7.94-6.3-9.65-2.18-.67-4.27-4.71-4.56-7.41-1.37-12.49-7.53-20.78-20.41-24.14-15.35-4-30.72-8-46-12.38-2.41-.7-5.56-3.14-6-5.25-1.46-6.78-6.33-7.68-11.91-7.6-13.64.19-27.28.81-40.92.88q-16.55.07-33.08.11t-33.08-.11c-13.64-.07-27.28-.69-40.92-.88-5.58-.08-10.45.82-11.91,7.6-.46,2.11-3.61,4.55-6,5.25-15.24,4.38-30.61,8.38-46,12.38-12.87,3.36-19,11.65-20.4,24.14-.29,2.7-2.38,6.74-4.56,7.41-5.52,1.71-6.36,4.93-6.3,9.65.16,12.27.24,24.55-.16,36.82-.12,3.72.38,6,4.21,7.55,4.55,1.8,6.31,5.24,7.36,10.13,2.61,12.19,10,21.44,22.77,25.12q28.37,8.16,57.07,15.18c14.37,3.55,22.72-.28,29.75-12.84,10.66-19,21.13-38.16,31.83-57.17A30.92,30.92,0,0,1,287.7,249c3.42-3.25,7.07-5,10.59-5.34,3.52.32,7.17,2.09,10.59,5.34a30.92,30.92,0,0,1,5.74,7.05c10.7,19,21.17,38.14,31.83,57.17,7,12.56,15.38,16.39,29.75,12.84q28.68-7.06,57.07-15.18C446.05,307.2,453.43,298,456,285.76c1-4.89,2.81-8.33,7.36-10.13C467.23,274.12,467.73,271.8,467.61,268.08Zm-189.87-44.4c-12,22.83-24.83,45.26-36.39,68.29-7.84,15.62-18.92,16.75-31.12,13.72s-24.08-7.05-36-11c-12.76-4.25-18.91-13.14-18.84-26.14,0-10.81,0-21.63,0-34a5.25,5.25,0,0,0,.2-1.47c0-21,6.74-28,28.19-29.65,8.15-.61,16.25-1.85,24.4-2.47,19.42-1.49,38.84-2.9,58.28-4.09,10-.6,14.72,5.09,14.7,14.07A28.8,28.8,0,0,1,277.74,223.68Zm144.57,71c-11.88,4-23.79,8-36,11s-23.28,1.9-31.12-13.72c-11.56-23-24.41-45.46-36.39-68.29a28.67,28.67,0,0,1-3.47-12.78c0-9,4.68-14.67,14.7-14.07,19.44,1.19,38.86,2.6,58.28,4.09,8.15.62,16.25,1.86,24.4,2.47C434.2,205,441,212.06,440.94,233a5.25,5.25,0,0,0,.2,1.47c0,12.4,0,23.22,0,34C441.22,281.54,435.07,290.43,422.31,294.68Z" transform="translate(-59.49 -35.49)"/><path class="cls-1" d="M297.16,252.72c-13.15,0-37.81,57.92-35.86,60.83,1,1.45,18.69-5.48,36.56-5.55,18.16-.07,36.45,6.69,37.43,5.55C337.24,311.29,310.3,252.72,297.16,252.72Z" transform="translate(-59.49 -35.49)"/><path class="cls-1" d="M376.69,343.6l-35-10a56.56,56.56,0,0,0-87.38,0l-34.72,10c-6.29,1.46-11.48,4.09-11.48,10.28l-1.3,36c0,6.19,4.82,14.12,11.25,14.12h37.47c10.12,0,25.36,19.13,42.4,19.13S330.18,404,340.3,404h37.47c6.43,0,12-7.93,12-14.12l-1.3-34.95C388.51,348.73,383.05,345.53,376.69,343.6ZM297.5,407.67c-24.22,0-43.86-18.9-43.86-42.21s19.64-42.21,43.86-42.21,43.87,18.9,43.87,42.21S321.73,407.67,297.5,407.67Z" transform="translate(-59.49 -35.49)"/><ellipse class="cls-1" cx="238.01" cy="331.09" rx="38.02" ry="36.58"/><path class="cls-1" d="M79.34,234.14c0-38.95,26.16-74.09,68.12-99a184.16,184.16,0,0,1,13.67-26.82C99.67,136.15,59.49,182.12,59.49,234.14c0,58.15,50.2,108.75,124.22,134.85,4.93,1.73,10,16.42,15.09,17.93v-33.3C127.89,331,79.34,287.21,79.34,234.14Z" transform="translate(-59.49 -35.49)"/><path class="cls-1" d="M435.45,108.35a184.16,184.16,0,0,1,13.67,26.82c42,24.88,68.12,60,68.12,99,0,53.07-48.55,96.88-119.46,119.48v33.3c6-1.78,12-16.78,17.7-18.87,72.59-26.36,121.61-76.45,121.61-133.91C537.09,182.12,496.91,136.15,435.45,108.35Z" transform="translate(-59.49 -35.49)"/><path class="cls-1" d="M149.55,181.76c16.56-4.32,33.14-8.63,49.58-13.36,2.6-.75,6-3.39,6.49-5.66,1.58-7.31,6.83-8.28,12.85-8.2,14.71.21,29.42.87,44.14,1q17.83.09,35.68.12t35.68-.12c14.72-.08,29.43-.74,44.14-1,6-.08,11.27.89,12.85,8.2.49,2.27,3.89,4.91,6.49,5.66,16.44,4.73,33,9,49.58,13.36a33.09,33.09,0,0,1,10.32,4.51C446.68,101.11,379.54,35.49,298.29,35.49S149.9,101.11,139.23,186.27A33.09,33.09,0,0,1,149.55,181.76Z" transform="translate(-59.49 -35.49)"/><path class="cls-2" d="M277.74,223.5c-12,22.83-24.83,45.26-36.39,68.29-7.84,15.62-18.92,16.75-31.12,13.72s-24.08-7.05-36-11c-12.76-4.25-18.91-13.14-18.84-26.14,0-10.81,0-21.63,0-34a5.25,5.25,0,0,0,.2-1.47c0-21,6.74-28,28.19-29.65,8.15-.61,16.25-1.85,24.4-2.47,19.42-1.49,38.84-2.9,58.28-4.09,10-.61,14.72,5.08,14.7,14.07A28.8,28.8,0,0,1,277.74,223.5Zm144.57,71c-11.88,4-23.79,8-36,11s-23.28,1.9-31.12-13.72c-11.56-23-24.41-45.46-36.39-68.29a28.67,28.67,0,0,1-3.47-12.78c0-9,4.68-14.68,14.7-14.07,19.44,1.19,38.86,2.6,58.28,4.09,8.15.62,16.25,1.86,24.4,2.47,21.45,1.61,28.24,8.67,28.19,29.65a5.25,5.25,0,0,0,.2,1.47c0,12.4,0,23.22,0,34C441.22,281.36,435.07,290.25,422.31,294.5Z" transform="translate(-59.49 -35.49)"/></svg>